<svg width="33" height="34" viewBox="0 0 33 34" fill="none" xmlns="http://www.w3.org/2000/svg">
<path d="M0 26.293C2.64258 28.1621 7.47656 29 12.375 29C17.209 29 22.043 28.1621 24.75 26.293V29C24.75 31.3203 19.207 33.125 12.375 33.125C5.54297 33.125 0 31.3203 0 29V26.293ZM20.625 8.375C13.793 8.375 8.25 6.57031 8.25 4.25C8.25 1.99414 13.793 0.125 20.625 0.125C27.457 0.125 33 1.99414 33 4.25C33 6.57031 27.457 8.375 20.625 8.375ZM0 19.5254C2.64258 21.7168 7.47656 22.8125 12.375 22.8125C17.209 22.8125 22.043 21.7168 24.75 19.5254V22.8125C24.75 25.1328 19.207 26.9375 12.375 26.9375C5.54297 26.9375 0 25.1328 0 22.8125V19.5254ZM26.8125 20.2344V16.1094C29.2617 15.6582 31.4531 14.9492 33 13.918V16.625C33 18.1719 30.4863 19.5254 26.8125 20.2344ZM12.375 10.4375C19.207 10.4375 24.75 12.7578 24.75 15.5938C24.75 18.4941 19.207 20.75 12.375 20.75C5.54297 20.75 0 18.4941 0 15.5938C0 12.7578 5.54297 10.4375 12.375 10.4375ZM26.4902 14.1113C25.9102 12.5645 24.4922 11.3398 22.623 10.4375C26.748 10.1797 30.6797 9.3418 33 7.73047V10.4375C33 12.0488 30.3574 13.4023 26.4902 14.1113Z" fill="white"/>
</svg>
