<svg width="33" height="30" viewBox="0 0 33 30" fill="none" xmlns="http://www.w3.org/2000/svg">
<path d="M2.0625 27V8.4375H30.9375V27C30.9375 28.1602 29.9707 29.0625 28.875 29.0625H4.125C2.96484 29.0625 2.0625 28.1602 2.0625 27ZM12.375 13.3359V13.8516C12.375 14.3027 12.6973 14.625 13.1484 14.625H19.8516C20.2383 14.625 20.625 14.3027 20.625 13.8516V13.3359C20.625 12.9492 20.2383 12.5625 19.8516 12.5625H13.1484C12.6973 12.5625 12.375 12.9492 12.375 13.3359ZM30.9375 0.1875C32.0332 0.1875 33 1.1543 33 2.25V5.34375C33 5.92383 32.4844 6.375 31.9688 6.375H1.03125C0.451172 6.375 0 5.92383 0 5.34375V2.25C0 1.1543 0.902344 0.1875 2.0625 0.1875H30.9375Z" fill="white"/>
</svg>
