<svg width="32" height="28" viewBox="0 0 32 28" fill="none" xmlns="http://www.w3.org/2000/svg">
<path d="M29 28H3C1.3125 28 0 26.6875 0 25V3C0 1.375 1.3125 0 3 0H29C30.625 0 32 1.375 32 3V25C32 26.6875 30.625 28 29 28ZM8 5.5C6.5625 5.5 5.5 6.625 5.5 8C5.5 9.4375 6.5625 10.5 8 10.5C9.375 10.5 10.5 9.4375 10.5 8C10.5 6.625 9.375 5.5 8 5.5ZM8 11.5C6.5625 11.5 5.5 12.625 5.5 14C5.5 15.4375 6.5625 16.5 8 16.5C9.375 16.5 10.5 15.4375 10.5 14C10.5 12.625 9.375 11.5 8 11.5ZM8 17.5C6.5625 17.5 5.5 18.625 5.5 20C5.5 21.4375 6.5625 22.5 8 22.5C9.375 22.5 10.5 21.4375 10.5 20C10.5 18.625 9.375 17.5 8 17.5ZM26 9V7C26 6.625 25.625 6.25 25.25 6.25H12.75C12.3125 6.25 12 6.625 12 7V9C12 9.4375 12.3125 9.75 12.75 9.75H25.25C25.625 9.75 26 9.4375 26 9ZM26 15V13C26 12.625 25.625 12.25 25.25 12.25H12.75C12.3125 12.25 12 12.625 12 13V15C12 15.4375 12.3125 15.75 12.75 15.75H25.25C25.625 15.75 26 15.4375 26 15ZM26 21V19C26 18.625 25.625 18.25 25.25 18.25H12.75C12.3125 18.25 12 18.625 12 19V21C12 21.4375 12.3125 21.75 12.75 21.75H25.25C25.625 21.75 26 21.4375 26 21Z" fill="white"/>
</svg>
