<svg width="42" height="30" viewBox="0 0 42 30" fill="none" xmlns="http://www.w3.org/2000/svg">
<path d="M12.375 14.625C8.37891 14.625 5.15625 11.4023 5.15625 7.40625C5.15625 3.47461 8.37891 0.1875 12.375 0.1875C16.3066 0.1875 19.5938 3.47461 19.5938 7.40625C19.5938 11.4023 16.3066 14.625 12.375 14.625ZM17.2734 16.6875C21.3984 16.6875 24.75 20.0391 24.75 24.1641V25.9688C24.75 27.709 23.332 29.0625 21.6562 29.0625H3.09375C1.35352 29.0625 0 27.709 0 25.9688V24.1641C0 20.0391 3.28711 16.6875 7.41211 16.6875H7.92773C9.28125 17.332 10.7637 17.7188 12.375 17.7188C13.9219 17.7188 15.4043 17.332 16.7578 16.6875H17.2734ZM30.9375 14.625C27.5215 14.625 24.75 11.8535 24.75 8.4375C24.75 5.02148 27.5215 2.25 30.9375 2.25C34.3535 2.25 37.125 5.02148 37.125 8.4375C37.125 11.8535 34.3535 14.625 30.9375 14.625ZM34.0312 16.6875C37.9629 16.6875 41.25 19.9746 41.25 23.9062C41.25 25.6465 39.832 27 38.1562 27H26.748C26.748 26.8711 26.8125 26.7422 26.8125 26.6133V24.1641C26.8125 21.6504 25.7812 19.3945 24.2344 17.7188C25.2656 17.0742 26.4902 16.6875 27.8438 16.6875H28.0371C28.9395 17.0098 29.9062 17.2031 30.9375 17.2031C31.9043 17.2031 32.8711 17.0098 33.7734 16.6875H34.0312Z" fill="white"/>
</svg>
