<svg width="37" height="34" viewBox="0 0 37 34" fill="none" xmlns="http://www.w3.org/2000/svg">
<path d="M34.9668 18.6875C35.6113 18.6875 36.127 19.2676 35.998 19.8477C35.5469 23.457 33.8066 26.6152 31.293 28.9355C30.9062 29.3223 30.2617 29.3223 29.875 28.9355L19.6914 18.6875H34.9668ZM33.9355 14.5625C34 15.1426 33.4844 15.5938 32.9043 15.5938H18.5312V1.2207C18.5312 0.640625 18.9824 0.125 19.5625 0.189453C27.2969 0.705078 33.4199 6.82812 33.9355 14.5625ZM15.4375 18.6875L25.4277 28.7422C25.8789 29.1934 25.8789 29.9668 25.3633 30.2891C22.9141 32.0938 19.8848 33.125 16.6621 33.125C8.34766 33.2539 1.25781 26.4863 1 18.2363C0.677734 10.1797 6.54297 3.47656 14.2773 2.38086C14.8574 2.31641 15.4375 2.83203 15.4375 3.41211V18.6875Z" fill="white"/>
</svg>
